<?xml version="1.0" encoding="UTF-8" standalone="no"?>
<!-- Created with Inkscape (http://www.inkscape.org/) -->

<svg
   version="1.1"
   id="svg2"
   width="42.203773"
   height="41.229649"
   viewBox="0 0 42.203775 41.22965"
   xmlns="http://www.w3.org/2000/svg"
   xmlns:svg="http://www.w3.org/2000/svg">
  <defs
     id="defs6" />
  <g
     id="g8"
     transform="translate(-76.051137,-12.704011)">
    <path
       style="fill:#000000;stroke-width:0.32"
       d="M 91.054914,53.45453 C 84.410632,51.709551 79.01644,46.455772 76.787877,39.558876 c -0.488381,-1.51143 -0.586736,-3.33504 -0.69639,-12.912019 -0.09506,-8.301901 -0.02787,-11.393043 0.262941,-12.095091 0.478758,-1.155824 1.998972,-1.997194 3.181331,-1.76072 0.479712,0.09594 2.511769,1.317558 4.51568,2.7147 l 3.643475,2.54026 3.04,-0.78514 c 2.686378,-0.693808 3.542515,-0.769497 7.359999,-0.650678 3.254097,0.101283 4.833207,0.301952 6.399997,0.813283 l 2.08,0.678823 1.6,-1.085277 c 0.88,-0.596903 2.66394,-1.817171 3.96432,-2.711709 2.80069,-1.926618 3.81007,-2.061267 5.18029,-0.691046 l 0.93539,0.935382 v 11.048867 c 0,6.682058 -0.13712,11.719069 -0.34695,12.744615 -0.19082,0.932662 -0.98437,3.024332 -1.76344,4.648156 -2.48213,5.17352 -7.43017,9.171472 -12.9661,10.476429 -2.66095,0.627251 -9.714159,0.619584 -12.123506,-0.01318 z m 11.861916,-3.206176 c 5.68644,-1.670262 10.19588,-6.247324 11.6481,-11.822774 0.39032,-1.49856 0.48998,-3.953312 0.48998,-12.069277 V 16.168191 l -3.76,2.597443 c -4.22551,2.919021 -3.93699,2.864116 -8.4,1.598576 -3.530997,-1.001254 -8.205874,-0.947625 -11.924831,0.136797 -1.542659,0.449827 -3.104125,0.817869 -3.469927,0.817869 -0.365798,0 -2.343622,-1.155738 -4.395164,-2.568307 l -3.730074,-2.568307 -0.09012,9.368307 c -0.102301,10.634768 0.108009,12.582109 1.722726,15.951456 1.991005,4.154531 6.551267,7.883481 10.885287,8.90096 2.175776,0.510797 9.088683,0.41383 11.024023,-0.154631 z m -7.221916,-8.94527 c -2.053133,-1.051907 -2.34575,-2.492122 -0.650278,-3.200538 1.303778,-0.544755 2.447847,-0.582988 4.058437,-0.135635 1.946917,0.540771 1.880687,1.970554 -0.14858,3.207891 -1.22929,0.749552 -1.98865,0.779437 -3.259579,0.128282 z m -9.454179,-4.544208 c -1.793754,-1.603725 -1.161031,-4.861597 1.08991,-5.61191 2.895475,-0.965159 5.039283,3.306128 2.788883,5.556524 -1.221363,1.221364 -2.553379,1.240384 -3.878793,0.05539 z m 17.856905,0.07546 c -2.57471,-2.574714 0.0746,-7.091616 3.20884,-5.470842 1.18058,0.610503 1.80916,2.07722 1.56024,3.640672 -0.38762,2.43474 -3.11707,3.482183 -4.76908,1.83017 z"
       id="path293" />
  </g>
</svg>
