<?xml version="1.0" encoding="UTF-8" standalone="no"?>
<svg
   version="1.0"
   width="112.38589"
   height="134.92348"
   viewBox="0 0 112.38589 134.92348"
   preserveAspectRatio="xMidYMid"
   id="svg204"
   sodipodi:docname="FreeSample-Vectorizer-io-family.svg"
   inkscape:version="1.2.2 (732a01da63, 2022-12-09)"
   inkscape:export-filename="..\Desktop\dad.svg"
   inkscape:export-xdpi="96"
   inkscape:export-ydpi="96"
   xmlns:inkscape="http://www.inkscape.org/namespaces/inkscape"
   xmlns:sodipodi="http://sodipodi.sourceforge.net/DTD/sodipodi-0.dtd"
   xmlns="http://www.w3.org/2000/svg"
   xmlns:svg="http://www.w3.org/2000/svg">
  <defs
     id="defs208" />
  <sodipodi:namedview
     id="namedview206"
     pagecolor="#505050"
     bordercolor="#eeeeee"
     borderopacity="1"
     inkscape:showpageshadow="0"
     inkscape:pageopacity="0"
     inkscape:pagecheckerboard="0"
     inkscape:deskcolor="#505050"
     showgrid="false"
     inkscape:zoom="2.6103896"
     inkscape:cx="78.340796"
     inkscape:cy="88.68408"
     inkscape:window-width="1920"
     inkscape:window-height="991"
     inkscape:window-x="-9"
     inkscape:window-y="-9"
     inkscape:window-maximized="1"
     inkscape:current-layer="layer2" />
  <g
     inkscape:groupmode="layer"
     id="layer1"
     inkscape:label="dad"
     style="display:inline"
     transform="translate(-12.204687,-23.689955)">
    <path
       d="m 12.458342,157.82553 c -0.45,-1.1 -0.25,-15.05 0.2,-18.9 0.55,-4.2 1.15,-6.25 2.9,-9.85 1.5,-3.15 3.5,-5.85 5.3,-7.35 0.5,-0.45 1.65,-1.45 2.5,-2.3 2.95,-2.85 11.55,-7.75 13.55,-7.75 1.118275,-0.50834 2.07734,-1.16519 3.15,-1.45 2.25,-0.7 2.9,-0.95 5.1,-2.05 0.55,-0.25 1.35,-0.5 1.75,-0.5 2.122447,-1.32306 5.027554,-3.85392 5.7,-5.9 0.8,-2.849999 0.7,-3.549999 -1.1,-5.299999 -3.15,-3.15 -6.8,-9 -6.85,-10.9 -0.417017,-1.07932 -0.989981,-1.668693 -1,-2.8 0,-1.95 -0.7,-3.1 -1.9,-3.1 -0.9,0 -3.55,-2.85 -4.2,-4.5 -0.9,-2.25 -0.9,-3.7 0.15,-5.9 0.75,-1.7 1.5,-2.4 3.2,-3.15 2.711401,-1.836611 1.815897,-1.119148 2.05,-3.3 0.35,-0.8 0.7,-1.9 0.7,-2.55 0,-0.6 0.2,-1.5 0.45,-2 2.25,-4.45 3,-5.6 4.75,-7.4 3.9,-3.95 8.8,-5.35 15.05,-4.25 1.65,0.3 3.8,0.65 4.75,0.8 0.95,0.2 2.2,0.5 2.75,0.75 0.55,0.25 1.9,0.55 3,0.75 1.1,0.2 3,0.55 4.25,0.8 6.3,1.25 9.5,1.1 13.3,-0.65 2.6,-1.2 4.55,-3.75 6.05,-7.9 0.95,-2.65 0.85,-2.85 -2.2,-3.8 -1.6,-0.5 -3,-1 -3.15,-1.15 -0.15,-0.15 -1.25,-0.85 -2.5,-1.5 -1.25,-0.7 -2.35,-1.35 -2.5,-1.55 -0.5,-0.6 -6.3,-3.3 -8.5,-3.95 -1.25,-0.35 -2.9,-0.85 -3.7,-1.1 -2.7,-0.8 -8.65,-0.5 -12.15,0.6 -2.7,0.9 -3.85,1.6 -5.95,3.8 -1.6,1.65 -3.2,2.8 -4.15,2.95 -3.732508,1.655798 -7.587718,5.042776 -9.4,8.7 -1.65,3.5 -1.8,4.3 -2.1,11.5 l -0.3,6.75 h -1.75 c -1.75,0 -1.75,0 -2.05,-2.75 -0.45,-3.65 -0.05,-10.2 0.8,-13.05 1.1,-3.9 3.2,-7.4 5.95,-10.1 2.45,-2.45 6.2,-4.85 7.45,-4.85 0.3,0 1.35,-0.85 2.35,-1.85 0.95,-1.05 2.3,-2.2 2.95,-2.55 3.4,-1.95 4.45,-2.45 6.35,-3 2.45,-0.7 10.7,-0.8 12.9,-0.15 6.35,1.9 8.95,2.95 12,4.8 5.85,3.5 8.4,4.65 11.45,5.25 3.249998,0.65 4.050008,1.55 3.349998,3.8 -0.25,0.8 -0.8,2.7 -1.25,4.25 -0.45,1.55 -1.15,3.3 -1.55,3.85 -0.599998,0.85 -0.649998,1.45 -0.25,2.75 1.35,4.45 1.65,7.35 0.95,10.9 -0.7,3.75 -1.099998,4.25 -3.199998,3.75 -1.3,-0.35 -1.3,-0.35 -0.95,-4 0.35,-3.75 -0.05,-8.3 -0.75,-8.3 -0.2,0 -0.85,0.4 -1.4,0.95 -1,0.85 -1.1,1.4 -1.1,7.15 v 6.3 l 1.5,0.25 c 1.85,0.4 4.45,3.1 4.6,4.8 0.349998,4.85 -0.85,7.35 -4.1,8.75 -1.2,0.5 -1.8,1.2 -2.3,2.6 -0.4,1.1 -0.7,2.25 -0.7,2.65 0,1 -2.75,6.25 -4.1,7.85 -0.65,0.75 -2,2.35 -3,3.5 -2.8,3.1 -2.45,6.199999 1,9.299999 2.528369,2.35319 5.98289,3.20145 8.75,4.35 1.15,0.5 3.1,1.3 4.35,1.8 2.749998,1 5.650008,2.35 6.000008,2.7 0.15,0.2 1.25,0.85 2.5,1.5 1.25,0.7 2.55,1.55 2.9,1.9 4.64742,3.5094 8.86437,8.745 11,13.4 0.2,0.3 0.65,1.3 0.95,2.25 1.35,4.3 1.7,8.15 1.55,16.5 l -0.15,8.75 -55.800008,0.15 c -52.1,0.1 -55.85,0.05 -56.15,-0.75 z m 23.95,-7.5 v -4.4 c 1.357356,-0.26297 2.975197,-0.12717 3.81693,0.0622 0,0.35 -0.01693,2.68781 -0.06693,4.83781 l -0.05,3.85 h 28.25 28.3 v -4.5 -4.5 h 2 1.999998 v 4.5 4.5 h 10.00001 10 v -6.6 c 0.54426,-5.34962 -1.21822,-10.44871 -2,-15.4 -2.34023,-4.89102 -6.82706,-9.67149 -10.75,-12.4 -1.35,-0.85 -2.75,-1.8 -3.1,-2.1 -4.58641,-1.88666 -9.087098,-4.23156 -13.950008,-5.75 -1,-0.25 -1.15,0 -1.7,3.1 -0.3,1.85 -0.75,3.95 -0.95,4.65 -0.25,0.7 -0.7,2.15 -1,3.25 -1.723367,3.96787 -3.144243,8.78309 -5.8,11.95 -3.297251,3.73596 -7.597921,10.48425 -12.55,11.3 -0.7,0 -5.15,-3.45 -7.45,-5.75 -4.818158,-5.34956 -8.684757,-10.67646 -11.25,-17.5 -0.757011,-3.36897 -2.480715,-6.42498 -2.5,-9.5 v -2.2 l -2.3,0.95 c -1.25,0.55 -2.5,1 -2.75,1 -6.837402,3.26258 -13.686712,5.27773 -19.1,10.7 -1.75,1.8 -4.55,6.55 -5.35,9.1 -0.35,1.05 -0.85,2.5 -1.1,3.2 -0.3,0.7 -0.6,5 -0.7,9.65 l -0.25,8.35 h 10.15 10.15 z m 33.85,-9.2 c 0.6,-0.3 1.6,-1.1 2.25,-1.75 1.1,-1.1 1.15,-1.35 0.65,-3.3 -0.85,-3.2 -1.35,-5.15 -2.55,-10.2 l -1.1,-4.6 1.35,-1.35 c 2.25,-2.25 1.6,-3 -2.45,-3 -3.2,0 -3.5,0.1 -3.65,1.1 -0.1,0.65 0.25,1.35 0.95,1.85 0.95,0.65 1.1,1.15 1,3.4 -0.05,1.45 -0.3,2.85 -0.5,3.15 -0.4,0.5 -0.75,2.1 -1.35,6.5 -0.2,1.1 -0.5,2.2 -0.75,2.5 -0.9,0.9 -0.4,2.05 1.65,4.1 2.3,2.25 2.9,2.45 4.5,1.6 z m 7.65,-7.45 c 1.868127,-4.27485 5.0615,-8.47331 5.95,-12.6 1.05,-5.3 1.35,-6.9 1.6,-8.95 0.15,-1.3 0.1,-2.45 -0.2,-2.65 -0.25,-0.15 -1.4,0.6 -2.55,1.7 -1.15,1.1 -3.2,2.55 -4.6,3.25 -2.7,1.4 -2.7,1.4 -1.9,2.7 0.7,1.1 0.3,3 -0.95,4.45 -1,1.15 -0.95,2.35 0.45,8.1 0.25,1.25 0.65,2.85 0.8,3.65 0.3,1.6 0.95,1.75 1.4,0.35 z m -16.25,-5.75 c 1.15,-4.85 1.15,-5.45 0.05,-6.6 -0.75,-0.8 -1.05,-1.75 -1.05,-3.55 0,-2.4 0,-2.45 -2.45,-3.6 -1.35,-0.6 -3.3,-2 -4.35,-3.05 -1,-1.05 -2,-1.8 -2.2,-1.7 -0.45,0.25 -0.1,5.1 0.45,6.5 0.2,0.55 0.9,2.6 1.5,4.5 1,3.15 3.85,9.6 4.55,10.25 0.15,0.15 0.7,0.95 1.25,1.75 l 0.95,1.5 0.35,-1.75 c 0.2,-0.95 0.6,-2.85 0.95,-4.25 z m 12.4,-16 c 1.99272,-0.81921 4.103457,-2.05633 5.55,-3.45 l 2.15,-2.15 -1.05,-2.15 c -0.6,-1.2 -1.05,-2.5 -1.05,-2.85 0,-0.35 -0.2,-0.65 -0.5,-0.65 -0.87311,1.05021 -2.303882,1.2619 -3.45,1.8 -4,2 -13.45,1.65 -16.8,-0.65 -1.5,-1.05 -2.25,-0.8 -2.25,0.75 0,0.8 -0.45,1.9 -0.95,2.45 -0.95,1 -0.95,1.05 0.6,2.7 4,4.25 10.5,5.75 17.75,4.2 z m 1.25,-13.899999 c 4.114113,-1.926101 7.955737,-5.06338 10.4,-8.65 1.25,-1.8 1.75,-2.8 3.4,-6.85 0.35,-0.95 0.55,-5.9 0.55,-14.75 v -13.35 l -4.35,-0.05 c -4.25,0 -7.85,-0.5 -12.65,-1.7 -11.15,-2.75 -15,-2.9 -18.75,-0.7 -5.3,3.1 -7.25,8.75 -6.9,20.2 0.25,9.3 0.6,11.05 2.8,15.25 1.3,2.45 1.55,2.75 4.4,5.65 3.65,3.75 4.35,4.25 8.6,6.1 3,1.299999 8.2,0.849999 12.5,-1.15 z m 19.65,-23.05 c 1.3,-1.35 0.65,-5.3 -0.9,-5.3 -0.2,0 -0.4,1.35 -0.4,3 0,3.15 0.15,3.45 1.3,2.3 z m -52.3,-2.65 c -0.05,-2.65 -0.1,-2.8 -0.75,-1.95 -0.9,1.15 -0.9,1.8 -0.25,3.5 0.75,2 1,1.55 1,-1.55 z"
       id="path140-2"
       sodipodi:nodetypes="cccccccccccccsccccsccccssccccsccccccccccscccscccccccscccccscscccccsccccccccccccccccccccccccccccccccccccccccccccccccccccccscccssccccccccccccsccccscccsccccccccccccccscccsccccccsccccccccccssccccc"
       inkscape:export-filename="..\Desktop\dad.svg"
       inkscape:export-xdpi="96"
       inkscape:export-ydpi="96" />
    <path
       d="m 63.558342,92.725531 c -1.55,-0.05 -2.6,-1.55 -2.15,-3 0.25,-0.8 0.9,-0.9 6.7,-0.85 4.7,0.05 6.6,0.25 7.25,0.75 0.8,0.65 0.75,0.8 -0.2,1.8 -0.6,0.65 -1.9,1.3 -2.9,1.45 -3.239701,1.422164 -6.042251,-0.06406 -8.7,-0.15 z"
       id="path142-2"
       sodipodi:nodetypes="ccccccc" />
    <path
       d="m 65.258342,84.075531 c -1.35,-1.35 -0.3,-3.4 1.8,-3.4 2,0 2.35,-0.9 2.4,-6.6 0.05,-8.55 1.55,-10.4 8.3,-10.4 3.95,0 4.9,0.45 4.9,2.3 0,1.6 -0.7,1.85 -4.35,1.75 -4.45,-0.15 -4.7,0.2 -4.9,6.85 -0.05,2.95 -0.15,5.75 -0.2,6.2 0,0.5 -0.75,1.55 -1.6,2.4 -1.25,1.15 -2.05,1.5 -3.65,1.5 -1.15,0 -2.35,-0.25 -2.7,-0.6 z"
       id="path144-7" />
    <path
       d="m 56.758342,74.325531 c -1.1,-0.45 -1.65,-2 -1.1,-3.35 0.7,-1.85 3.55,-1.85 4.5,-0.05 1.25,2.35 -0.8,4.45 -3.4,3.4 z"
       id="path146-0" />
    <path
       d="m 76.508342,73.775531 c -1.15,-1.25 -1.05,-2.55 0.25,-3.65 1.25,-1.1 1.05,-1.1 2.65,-0.35 0.95,0.4 1.25,0.95 1.25,2.15 0,0.85 -0.25,1.8 -0.6,2.15 -0.9,0.9 -2.65,0.75 -3.55,-0.3 z"
       id="path148-6" />
    <path
       d="m 52.708342,66.775531 c -0.25,-0.5 -0.35,-1.4 -0.2,-2 0.25,-1.05 0.55,-1.1 5.25,-1.1 h 4.95 l -0.15,1.9 -0.15,1.85 -4.6,0.15 c -4.05,0.1 -4.65,0.05 -5.1,-0.8 z"
       id="path150-4" />
  </g>
</svg>
