<?xml version="1.0" encoding="UTF-8" standalone="no"?>
<svg
   version="1.0"
   width="102.5408"
   height="128.01837"
   viewBox="0 0 102.5408 128.01837"
   preserveAspectRatio="xMidYMid"
   id="svg204"
   sodipodi:docname="FreeSample-Vectorizer-io-family.svg"
   inkscape:version="1.2.2 (732a01da63, 2022-12-09)"
   inkscape:export-filename="..\Desktop\dad.svg"
   inkscape:export-xdpi="96"
   inkscape:export-ydpi="96"
   xmlns:inkscape="http://www.inkscape.org/namespaces/inkscape"
   xmlns:sodipodi="http://sodipodi.sourceforge.net/DTD/sodipodi-0.dtd"
   xmlns="http://www.w3.org/2000/svg"
   xmlns:svg="http://www.w3.org/2000/svg">
  <defs
     id="defs208" />
  <sodipodi:namedview
     id="namedview206"
     pagecolor="#505050"
     bordercolor="#eeeeee"
     borderopacity="1"
     inkscape:showpageshadow="0"
     inkscape:pageopacity="0"
     inkscape:pagecheckerboard="0"
     inkscape:deskcolor="#505050"
     showgrid="false"
     inkscape:zoom="2.6103896"
     inkscape:cx="78.340796"
     inkscape:cy="88.68408"
     inkscape:window-width="1920"
     inkscape:window-height="991"
     inkscape:window-x="-9"
     inkscape:window-y="-9"
     inkscape:window-maximized="1"
     inkscape:current-layer="layer2" />
  <g
     inkscape:groupmode="layer"
     id="layer3"
     inkscape:label="daughter"
     style="display:inline"
     transform="translate(-454.65933,-24.948347)">
    <path
       d="m 452.3,139.2 c -1.4,-1.35 -0.95,-17.85 0.6,-23.85 0.9,-3.35 4,-8.75 6.5,-11.3 2.45,-2.5 2.5,-2.5 3.55,-1.6 0.55,0.5 1.05,1.2 1.05,1.5 -6.23827,7.52247 -7.90157,14.08445 -8.1,23.05 l -0.15,8.75 9.15,0.15 9.1,0.1 v -4.95 c 0,-5.2 0.15,-5.5 2.65,-5.8 1.45,-0.15 1.8,0.85 1.95,5.8 l 0.15,4.7 h 24 24 l 0.15,-5 c 0.05,-2.7 0.35,-5.1 0.65,-5.25 0.25,-0.2 1.15,-0.25 1.95,-0.1 l 1.45,0.2 0.15,5.1 0.15,5.05 h 9.25 9.25 L 549.9,131 c 0.4,-11.2 -2.35,-20.3 -7.55,-25 l -1.35,-1.25 1.2,-1.35 c 1.55,-1.85 2.25,-1.75 4.05,0.65 0.85,1.1 1.75,2.25 2.05,2.6 0.95,1.1 3.3,6 3.8,7.85 1.6,6.3 1.9,8.75 1.9,16.05 0,6.9 -0.1,7.9 -0.9,8.6 -0.85,0.8 -5.05,0.85 -50.5,0.85 -44.35,0 -49.6,-0.1 -50.3,-0.8 z"
       id="path172"
       transform="translate(3.2001054,12.966714)"
       sodipodi:nodetypes="cccccccccsccccccccccccccccccccscsc" />
    <path
       d="m 472.55,114.05 c -2.15,-2.05 -4.85,-6.65 -5.8,-9.95 -0.9,-2.95 -0.8,-6.9 0.2,-11.35 0.35,-1.35 0.7,-3.1 0.9,-3.9 0.87389,-1.952589 1.29511,-4.205857 0.65,-5.85 -0.7,0 -0.65,-1.85 0.05,-2.1 0.45,-0.15 0.4,-0.55 -0.05,-1.4 -0.35,-0.7 -0.8,-1.35 -1,-1.5 -1.1,-0.75 -2.5,-4.25 -2.5,-6.25 0,-2.3 0.55,-3.65 2.15,-5.45 0.95,-1.1 1.1,-2.1 0.35,-2.55 -0.89907,-2.406017 -0.038,-5.380472 1.05,-7.6 0.3,-0.3 0.45,-2.55 0.4,-5.95 -0.1,-3 -0.15,-7.35 -0.1,-9.65 0.33155,-12.367437 8.57407,-24.183339 19.65,-27.85 2.6,-0.8 25.7,-1 27.6,-0.25 0.65,0.25 2.45,0.95 4.05,1.55 10.51991,4.640053 17.46214,18.018419 16.65,29.25 -0.95,9.6 -0.95,11.15 0.2,13.65 0.9,1.9 1.05,2.9 0.85,5.5 -0.1,1.7 -0.05,3.25 0.2,3.4 0.9,0.55 2.05,4 2,6.2 0,2.3 -0.5,3.6 -2.35,6.25 -2.21646,4.635819 -0.74929,10.515135 0.5,14.9 1,3.65 1,9.45 0,12.1 -1.03107,3.00834 -2.61866,5.52473 -4.5,7.65 -1.85,2.1 -2.55,2.55 -3.4,2.3 -2.83456,-1.68184 -4.74085,-4.49754 -6.5,-6.8 -0.35,-0.4 -1.2,-1.7 -1.85,-2.95 -1.05,-1.85 -1.2,-2.85 -1.15,-6.7 0.05,-3.15 -0.15,-4.65 -0.6,-5.15 -0.6,-0.55 -0.8,-0.55 -1.45,0.1 -1.96125,3.22799 -4.74429,6.43075 -8.1,8.25 -5.46761,2.30056 -11.88893,2.12184 -16.95,-0.35 -3.52627,-2.386173 -8.59718,-6.192071 -8.7,-10.8 0,-1.1 0.45,-1.9 1.5,-2.7 2.4,-1.95 3.6,-4.3 3.6,-7.15 -0.05,-2.15 -0.25,-2.75 -1.55,-3.95 -7.27899,-6.993392 -9.22407,-15.714643 -9.4,-23.4 -0.15,-5.8 -0.05,-7.25 0.55,-7.85 4.00437,-2.798835 9.11297,-4.289307 12.25,-7.05 4.73267,-2.215725 6.93169,-8.273285 10.85,-10 1.1,-0.3 1.75,0.15 4.85,3.35 2,2.05 5.05,4.7 6.85,5.9 3.92964,2.94723 7.50005,5.20754 11.65,7.2 0.45,0.2 1.05,0.85 1.25,1.45 1.57987,9.32715 -1.0352,18.099666 -4.95,24.9 -0.4,0.7 -2.2,2.8 -4.05,4.65 -3.05,3.05 -3.4,3.65 -3.4,5.4 0,2.8 1.45,4.95 4.9,7.4 3.19907,1.64172 3.33623,-1.108472 4.25,-3.45 0.25,-1 0.1,-1.4 -0.8,-1.75 -0.8,-0.35 -1.1,-0.95 -1.1,-2 v -1.5 l 4.2,-0.15 c 4.15,-0.15 4.2,-0.15 6.1,-2.15 1.91238,-2.185803 4.58871,-5.383174 3,-8.2 -0.3,-0.15 -0.75,0.25 -1.1,0.85 -1.1,2.1 -1.85,2.3 -3.5,0.9 -1.05,-0.95 -1.1,-1.15 -0.45,-2.15 1.75,-2.75 3.45,-6.75 3.5,-8.15 0,-0.8 -0.45,-2.45 -1,-3.6 -1.15,-2.35 -1.35,-8.35 -0.45,-12.6 0.85,-3.9 -0.5,-10.85 -3.2,-16.5 -2.45,-5.15 -5.4,-8.2 -9.85,-10.35 -4.1,-1.95 -6.2,-2.15 -18,-1.95 -8.19396,0.0082 -20.36068,0.230275 -24.25,9.75 -3.41068,4.774547 -4.35419,11.950728 -4.25,16.8 0.25,10.7 0.05,13.3 -1,15.6 -0.55,1.2 -1,2.5 -1,2.9 0,1.3 2.15,5.4 3.6,7 1.65,1.8 1.6,2.55 -0.25,3.65 -1.35,0.8 -1.4,0.8 -2.6,-0.6 -0.7,-0.8 -1.25,-1.7 -1.25,-2 0,-0.3 -0.35,-0.1 -0.75,0.4 -1.45,1.95 -0.8,3.9 2.7,8.25 l 1.7,2.05 h 4.4 c 4.3,0 4.45,0.05 4.75,1.25 0.35,1.35 -0.5,2.75 -1.6,2.75 -0.4,0 -0.7,0.15 -0.7,0.35 0,0.35 0.9,3.2 1.5,4.9 0.45,1.2 1.25,4.1 2.05,7.65 0.5,2.1 0.5,3.1 -0.05,5.25 -0.35,1.4 -0.8,2.7 -0.95,2.85 -0.15,0.15 -0.75,1.05 -1.25,2 -2.05,3.75 -6.5,8.5 -7.95,8.5 -0.15,0 -0.95,-0.65 -1.8,-1.45 z m 4.4,-6.5 c 2.17047,-2.15169 2.64432,-4.14274 3.6,-6.6 0.35,-0.75 0.35,-1.75 -0.05,-3.6 -0.95,-4.15 -1.6,-6.5 -2.1,-7.85 -1.15,-2.8 -1.35,-3.3 -1.65,-4.4 -0.3,-0.95 -0.65,-1.15 -1.9,-1 -1.35,0.15 -1.65,0.4 -1.95,1.9 -0.15,0.95 -0.6,2.65 -0.9,3.75 -2.55,8.9 -2.35,13.2 0.85,18.15 2.99201,3.64168 2.18434,1.70416 4.1,-0.35 z M 533,89.25 c -0.35,-1.1 -0.7,-2.75 -0.85,-3.6 -0.2,-1.35 -0.5,-1.65 -1.5,-1.65 -1.4,0 -2.65,1.05 -2.65,2.2 0,0.4 -0.25,1.4 -0.55,2.15 -1.1,2.65 -1.35,3.4 -1.85,5.4 -0.9,3.25 -1.1,5.9 -0.65,7.9 0.5,2.1 2.6,5.5 4.55,7.25 l 1.25,1.1 1.1,-1.35 c 4.14892,-7.95568 3.38891,-12.234524 1.15,-19.4 z M 505.7,99.3 c 1.55,-0.4 3.1,-0.9 3.5,-1.15 2.13161,-1.497124 7.85089,-5.788687 4.85,-8.6 C 512.8,88.45 511,84.8 511,83.3 v -1.2 l -2.6,0.95 c -3.5,1.25 -6.45,1.2 -10.5,-0.25 -1.85,-0.65 -3.5,-1.05 -3.65,-0.9 -0.15,0.15 -0.25,0.8 -0.25,1.45 0,1.65 -1.85,5.1 -3.6,6.75 l -1.45,1.35 1.15,1.65 c 2.15,2.95 4.75,4.75 9.15,6.3 2.15,0.7 3.35,0.7 6.45,-0.1 z m 1.7,-20.05 c 4.69518,-2.119204 8.33399,-5.413279 11.15,-9.5 4.1083,-5.221023 6.33037,-13.719602 4.75,-20.15 -2.66704,-4.337556 -8.68196,-6.174128 -12.15,-8.9 -0.6,-0.55 -2.05,-1.75 -3.2,-2.7 -1.15,-0.95 -2.65,-2.25 -3.25,-2.9 l -1.15,-1.1 -3.35,3.25 c -2.78904,2.539871 -5.59697,4.891366 -8.7,6.65 -1.25,0.7 -2.35,1.45 -2.5,1.6 -0.15,0.15 -1.55,0.9 -3.1,1.7 l -2.9,1.35 v 4.9 c 0,2.7 0.2,5.55 0.45,6.35 0.25,0.8 0.75,2.45 1.1,3.7 0.35,1.25 1.55,3.6 2.65,5.25 3.40338,5.075048 8.10669,8.917164 13.05,10.65 1.5,0.55 4.05,0.45 7.15,-0.15 z"
       id="path186"
       transform="translate(3.2001054,12.966714)"
       sodipodi:nodetypes="ccccccccsccccccccccccccccccccccccccccccccccccccsscccsccccccccccccccccscccscccscsscccscscccccccccccccsscccccccsccscccssccccsccccsccccsccsssccc" />
    <path
       d="m 501.5,75.1 c -3.8,-0.3 -6.05,-2.15 -5,-4.1 0.55,-1.05 2.7,-1.35 3.25,-0.5 0.15,0.3 1.4,0.5 2.75,0.5 1.35,0 2.6,-0.2 2.75,-0.5 0.55,-0.85 2.5,-0.55 3.15,0.55 0.55,0.85 0.55,1.2 0,1.85 -1.4,1.8 -3.55,2.5 -6.9,2.2 z"
       id="path188"
       transform="translate(3.2001054,12.966714)" />
    <path
       d="m 500.85,67.25 c -1.05,-0.75 -0.95,-2.2 0.15,-2.75 2.85,-1.3 2.75,-1.1 2.9,-6.05 0.0948,-3.274354 0.5327,-6.741604 2.85,-8.85 1.7,-1.55 1.8,-1.6 6.75,-1.6 4.9,0 5,0 5.3,1.25 0.5,2.1 -0.7,2.75 -5.2,2.75 -5.25,0 -5.6,0.45 -5.6,7.45 v 4.95 l -1.8,1.8 c -1.95,1.95 -3.75,2.3 -5.35,1.05 z"
       id="path190"
       transform="translate(3.2001054,12.966714)"
       sodipodi:nodetypes="ccccscsscsc" />
    <path
       d="m 490.6,58.4 c -0.35,-0.35 -0.6,-1.2 -0.6,-1.9 0,-2.55 2.51269,-3.497886 4.26269,-1.497886 0.9,1 1.18731,1.197886 0.38731,2.547886 -0.95,1.55 -2.95,1.95 -4.05,0.85 z"
       id="path192"
       transform="translate(3.2001054,12.966714)"
       sodipodi:nodetypes="ssccs" />
    <path
       d="m 511.65,58.25 c -0.8,-0.9 -0.85,-2.85 -0.05,-3.65 1.5,-1.5 4.4,-0.2 4.4,1.9 0,2.2 -2.95,3.35 -4.35,1.75 z"
       id="path194"
       transform="translate(3.2001054,12.966714)" />
    <path
       d="m 489.6,51.55 c -0.4,-0.25 -0.6,-1.05 -0.5,-1.85 0.15,-1.45 0.15,-1.45 4.05,-1.6 L 497,47.95 v 1.75 c 0,1.1 -0.3,1.8 -0.8,2 -1.15,0.45 -5.85,0.35 -6.6,-0.15 z"
       id="path196"
       transform="translate(3.2001054,12.966714)" />
  </g>
</svg>
