<?xml version="1.0" encoding="UTF-8" standalone="no"?>
<!-- Created with Inkscape (http://www.inkscape.org/) -->

<svg
   version="1.1"
   id="svg2"
   width="57.830276"
   height="49.226097"
   viewBox="0 0 57.830279 49.226099"
   sodipodi:docname="istockphoto-1164725318-170667a.jpg"
   xmlns:inkscape="http://www.inkscape.org/namespaces/inkscape"
   xmlns:sodipodi="http://sodipodi.sourceforge.net/DTD/sodipodi-0.dtd"
   xmlns="http://www.w3.org/2000/svg"
   xmlns:svg="http://www.w3.org/2000/svg">
  <defs
     id="defs6" />
  <sodipodi:namedview
     id="namedview4"
     pagecolor="#505050"
     bordercolor="#eeeeee"
     borderopacity="1"
     inkscape:showpageshadow="0"
     inkscape:pageopacity="0"
     inkscape:pagecheckerboard="0"
     inkscape:deskcolor="#505050"
     showgrid="false"
     showguides="false" />
  <g
     inkscape:groupmode="layer"
     id="layer1"
     inkscape:label="dog"
     transform="translate(-7.5799062,-4.6788758)">
    <path
       d="M 31.214914,53.47243 C 24.758988,51.711268 19.553627,46.899825 17.41155,40.713645 l -0.886903,-2.561318 -2.12242,-0.632615 C 12.862073,37.06065 11.844049,36.495315 10.691427,35.459008 8.305941,33.31425 7.753548,32.014883 7.60497,28.198877 7.440075,23.963802 8.072743,21.024131 9.980796,17.159696 12.813708,11.422114 18.407405,6.916719 24.694352,5.30879 26.867861,4.752898 28.254589,4.678876 36.494914,4.678876 c 8.240327,0 9.627054,0.07402 11.800564,0.629914 6.313962,1.614838 11.935575,6.154726 14.727287,11.893421 1.897836,3.901229 2.524499,6.817357 2.363132,10.996666 -0.138022,3.5748 -0.533075,4.651494 -2.44624,6.667114 -1.328534,1.39968 -2.851094,2.263974 -4.894835,2.778592 -1.410035,0.355052 -1.419222,0.366633 -2.144435,2.702896 -1.78985,5.765985 -6.582064,10.615847 -12.525472,12.676154 -2.7125,0.940298 -9.447143,1.188858 -12.160001,0.448797 z m 10.261921,-3.229238 c 5.261424,-1.561063 9.180829,-5.153088 11.226672,-10.288942 0.683229,-1.715171 0.742256,-2.428221 0.901261,-10.887543 0.181597,-9.661376 0.179667,-9.650931 1.786147,-9.662931 1.344982,-0.01005 1.424,0.425309 1.424,7.845767 0,3.895468 0.09029,7.172956 0.200646,7.283312 0.317725,0.317728 2.430077,-0.684128 3.438765,-1.630954 1.378615,-1.294064 1.800589,-2.60305 1.800589,-5.585514 0,-8.913427 -6.133722,-16.732679 -14.867232,-18.952701 -2.746685,-0.698196 -19.038852,-0.698196 -21.785537,0 -6.980097,1.774313 -12.608111,7.402327 -14.382423,14.382423 -0.560141,2.203581 -0.641611,6.756096 -0.144452,8.071936 0.61399,1.625059 2.385548,3.146726 4.379643,3.761856 l 0.72,0.222106 v -7.082602 c 0,-4.270266 0.131535,-7.328378 0.331259,-7.701565 0.375437,-0.70151 1.876271,-0.843433 2.484741,-0.234963 0.277054,0.277053 0.385548,2.527376 0.389556,8.08 0.0062,8.6556 0.292035,10.722026 1.932208,13.971191 1.975522,3.913488 6.589119,7.594404 10.740134,8.568919 2.128067,0.499597 7.509123,0.408352 9.424023,-0.159795 z m -7.279886,-6.867104 c -2.506406,-1.24066 -3.161584,-3.800715 -1.222035,-4.774987 1.295504,-0.650755 5.744765,-0.650666 7.04,1.41e-4 1.889841,0.949574 1.218529,3.588119 -1.212304,4.764865 -1.749162,0.846755 -2.910109,0.84927 -4.605661,0.01 z m -8.49399,-11.676027 c -1.125631,-0.610858 -1.528045,-1.39449 -1.528045,-2.975594 0,-2.360774 2.217214,-4.05032 4.224288,-3.21896 2.431466,1.007146 2.39737,4.940397 -0.05381,6.207952 -1.14855,0.59394 -1.526817,0.592023 -2.642429,-0.01341 z m 19.302804,0.10183 c -2.708845,-1.41936 -2.639568,-5.506774 0.108861,-6.422918 2.066249,-0.688749 4.330918,1.703792 3.881299,4.100454 -0.354963,1.892122 -2.466214,3.12097 -3.99016,2.322464 z"
       style="fill:#000000;stroke-width:0.32"
       id="path419" />
  </g>
</svg>
