<?xml version="1.0" encoding="UTF-8" standalone="no"?>
<svg
   version="1.0"
   width="102.9545"
   height="135.10188"
   viewBox="0 0 102.9545 135.10188"
   preserveAspectRatio="xMidYMid"
   id="svg204"
   sodipodi:docname="FreeSample-Vectorizer-io-family.svg"
   inkscape:version="1.2.2 (732a01da63, 2022-12-09)"
   inkscape:export-filename="..\Desktop\dad.svg"
   inkscape:export-xdpi="96"
   inkscape:export-ydpi="96"
   xmlns:inkscape="http://www.inkscape.org/namespaces/inkscape"
   xmlns:sodipodi="http://sodipodi.sourceforge.net/DTD/sodipodi-0.dtd"
   xmlns="http://www.w3.org/2000/svg"
   xmlns:svg="http://www.w3.org/2000/svg">
  <defs
     id="defs208" />
  <sodipodi:namedview
     id="namedview206"
     pagecolor="#505050"
     bordercolor="#eeeeee"
     borderopacity="1"
     inkscape:showpageshadow="0"
     inkscape:pageopacity="0"
     inkscape:pagecheckerboard="0"
     inkscape:deskcolor="#505050"
     showgrid="false"
     inkscape:zoom="2.6103896"
     inkscape:cx="78.340796"
     inkscape:cy="88.68408"
     inkscape:window-width="1920"
     inkscape:window-height="991"
     inkscape:window-x="-9"
     inkscape:window-y="-9"
     inkscape:window-maximized="1"
     inkscape:current-layer="layer2" />
  <g
     inkscape:groupmode="layer"
     id="layer6"
     inkscape:label="grandma"
     transform="translate(-236.2001,-249.81483)">
    <path
       d="m 234,370.65 c -0.9,-1.15 -1,-2 -1,-7.35 0,-7.75 0.95,-14.95 2.5,-19.05 2.36419,-6.02581 6.08148,-11.36714 11.75,-14.65 2.47894,-1.69964 5.32304,-2.95794 7.75,-3.85 1.25,-0.5 3.2,-1.3 4.35,-1.8 1.2,-0.5 2.35,-0.95 2.65,-0.95 0.65,0 4.05,-2 5.55,-3.25 1.5,-1.25 2.45,-3.9 2.45,-6.95 0,-2.5 -0.55,-3.9 -2.15,-5.55 -1.05,-1.1 -3.35,-4.95 -4.65,-7.75 -1.9,-4.15 -2.4,-8.35 -2.25,-18.55 0.05,-3.15 0.3,-3.35 4.95,-4.45 5.85,-1.35 11.2,-4.65 16.95,-10.35 1.15,-1.2 2.3,-2.15 2.5,-2.15 0.2,0 1.15,0.85 2.15,1.9 3.85,4.1 11.7,8.95 17,10.55 4.3,1.25 4.5,1.45 4.55,4.25 0.15,8.95 -0.4,15.3 -1.55,17.05 -1.19418,3.85893 -2.91944,7.04447 -5.5,9.8 -2.8,3 -2.95,3.35 -3,5.65 0,3.45 0.85,5.4 2.95,6.85 1,0.65 1.9,1.3 2.05,1.45 0.55,0.55 4.9,2.5 8,3.5 12.66202,6.57751 17.02509,7.96841 21.5,19.25 1.45,3.6 2.05,8.15 2.35,17.35 0.2,7.85 0.2,8.35 -0.8,9.35 -1,1 -1.5,1 -50.5,1 h -49.5 z m 53.15,-7.8 c 0.47715,-6.03766 1.62709,-11.7496 5.35,-15.75 4.90556,-6.05873 11.24418,-11.12561 15.25,-17.4 0.9,-0.9 1,-2.2 0.15,-2.2 -0.3,0 -1.75,-0.6 -3.25,-1.3 -1.45,-0.75 -2.75,-1.25 -2.85,-1.15 -2.74864,4.34066 -6.10296,7.3379 -10.2,9.4 -2.65,1.35 -3.6,1.55 -6.95,1.55 -2.25,0 -4.75,-0.35 -5.9,-0.8 -5.49983,-1.83803 -7.84939,-4.93478 -11.2,-10.2 -0.35,0 -3.65,1.55 -4.95,2.35 2.4973,6.09807 6.69523,11.11 11.9,15.15 4.16552,3.42622 7.21633,8.29065 8.75,13.3 0.4,1.35 0.75,4.4 0.75,6.8 0,3.55 0.15,4.45 0.85,4.8 1.65,0.95 2.1,0.15 2.3,-4.55 z m 21.25,4.4 c 0.5,-0.2 0.65,-1.25 0.55,-3.85 l -0.1,-3.65 h 1.95 l 1.95,0.05 0.15,3.8 0.15,3.85 9,0.15 c 5,0.1 9.15,-0.05 9.3,-0.25 0.45,-0.7 0.2,-12.05 -0.3,-15.6 -1.07645,-6.92067 -4.02148,-14.18548 -10.55,-18.2 -0.7,-0.4 -2.7,-1.5 -4.5,-2.4 l -3.25,-1.65 c -1.23726,1.83475 -2.63808,3.87354 -3.5,5.6 -0.55,1.15 -2.9,3.9 -5.2,6.1 -4.40504,3.98484 -18.32959,17.83039 -12.6,26.1 0.5,0.45 15.6,0.4 16.95,-0.05 z m -52.3,-3.6 0.15,-3.85 1.65,-0.35 c 2.1,-0.4 2.35,0 2.35,4.3 v 3.5 l 9.9,0.15 9.85,0.1 v -4.1 c 0,-2.3 -0.3,-5.2 -0.7,-6.45 -1.55,-5.05 -5.15,-10.05 -9.3,-12.95 -4.51907,-3.52271 -8.00186,-7.96227 -10.4,-13.1 -0.45,-1.05 -1.2,-1.9 -1.65,-1.9 -0.95,0 -7.55,3.35 -9.95,5.05 -9.20284,8.16312 -12.8567,20.15602 -10.6,32.95 0.1,0.3 3.75,0.5 9.35,0.5 h 9.2 z M 298.5,323 c 0,-0.5 -0.35,-1.15 -0.75,-1.5 -2.35841,-2.58566 -1.34393,-8.52766 -4.15,-6.55 -1.65,1.1 -3.7,1.6 -8.6,1.9 -3.6,0.2 -3.95,0.15 -7.2,-1.6 -3.85,-2.05 -4,-2 -4.55,1.65 -0.2,1.2 -0.75,2.9 -1.3,3.8 -2.27314,4.30232 3.83872,9.05482 7.75,10.6 5.54112,1.74145 17.87501,-1.18607 18.8,-8.3 z m -8.25,-10.65 c 11.75,-4.8 14.51681,-16.29773 14.8,-25.05 0.15,-6.55 0.35,-6.1 -3.3,-7.55 -3.55,-1.4 -9.95,-4.7 -11.45,-5.85 -0.75,-0.65 -2.25,-1.85 -3.25,-2.7 -1.25,-1.1 -2,-1.4 -2.35,-1.1 -0.35,0.3 -1.35,1.2 -2.25,2.1 -3.8,3.6 -9.1,6.45 -15.25,8.3 -1.95,0.55 -2.1,0.8 -2.35,2.7 -0.15,1.1 -0.2,4.1 -0.1,6.65 0.15,4.05 0.35,5 1.95,8.35 2.81623,5.14791 6.93742,11.94115 12.75,13.65 0.7,0.15 1.55,0.45 1.8,0.65 1.35,1.05 6.15,1 9,-0.15 z"
       id="path80"
       transform="translate(3.2001054,12.966714)"
       sodipodi:nodetypes="csccccssscccccscccccccscccsscccccscccscccccsccccccccccccccccccccccscccscccsccsccccccccccccccccscccccccc" />
    <path
       d="m 281.6,308.25 c -2.7,-0.9 -3.55,-3.4 -1.6,-4.65 1.41561,-0.14408 1.96484,0.29165 3.2228,0.93228 0.45,0.45 1.8272,0.46772 3.8272,-0.23228 2.25,-0.85 2.6,-0.85 3.3,-0.15 1.05,1.05 0.05,2.75 -2.25,3.7 -2.35,0.95 -4.45,1.1 -6.5,0.4 z"
       id="path86"
       transform="translate(3.2001054,12.966714)"
       sodipodi:nodetypes="ccccscc" />
    <path
       d="m 282.6,300.25 c -1.05,-1.2 -0.55,-2.95 0.9,-3.15 2.2,-0.35 2.5,-0.95 2.5,-5.45 v -4.2 l -1.6,0.15 c -1.35,0.1 -1.8,0.5 -2.65,2.25 -1.9,3.95 -4.8,5.05 -9.55,3.75 -1.8,-0.5 -2.25,-0.95 -3.2,-2.95 -0.8,-1.75 -1,-2.85 -0.8,-4.3 0.7,-4.25 2.9,-6.4 6.6,-6.5 2.55,0 4.35,0.8 6.3,2.75 1.1,1.15 1.75,1.4 3.8,1.4 2,0 2.7,-0.2 3.3,-1.05 2.4,-3.45 7.9,-4.15 10.9,-1.3 2.5,2.3 3.15,5.3 1.85,8.3 -1.45,3.4 -5.8,5.25 -9.15,3.85 -1,-0.4 -1.8,-0.7 -1.85,-0.65 0,0.05 -0.1,0.9 -0.15,1.9 -0.15,2.25 -1.45,4.35 -3.1,4.95 -2.4,0.95 -3.45,1 -4.1,0.25 z m -5.15,-10.7 c 1.85,-1.7 1.9,-2.45 0.5,-4.25 -0.9,-1.15 -1.4,-1.35 -3.15,-1.2 -1.7,0.1 -2.15,0.4 -2.75,1.6 -0.6,1.3 -0.6,1.65 0,2.75 1.93231,2.4555 3.43117,2.94007 5.4,1.1 z m 20.35,-1.3 c 0.15,-0.7 0.05,-1.95 -0.3,-2.75 -0.55,-1.3 -0.9,-1.5 -2.45,-1.5 -2.3,0 -4.05,1.5 -4.05,3.45 0,1.1 0.4,1.6 1.9,2.4 1.65,0.9 2,0.9 3.2,0.3 0.75,-0.35 1.55,-1.25 1.7,-1.9 z"
       id="path88"
       transform="translate(3.2001054,12.966714)"
       sodipodi:nodetypes="ccsccccccccsccccccccccccccccssccc" />
    <path
       d="m 312.15,298.15 c -1.15,-0.75 -1.55,-2.35 -0.75,-2.85 0.4,-0.25 0.95,-2.35 2.05,-7.65 0.65,-3.2 0.65,-13 0,-15.85 -0.65,-2.8 -0.85,-3.4 -2.4,-6.9 -1.55,-3.55 -5.45,-7.9 -8.4,-9.45 -1.25043,-0.73553 -2.6261,-1.45522 -3.8,-1.85 -18.71466,-2.63082 -35.10391,-3.80383 -41.8,15.15 -1.1,3.2 -1.25,4.25 -1.2,11.75 0.05,6.15 0.25,9 0.9,11.1 0.45,1.6 1.05,3 1.3,3.15 0.95,0.65 0.4,2.2 -1.1,2.95 l -1.5,0.75 -1,-2.3 c -1.95,-4.6 -2.65,-9.05 -2.65,-16.9 0.05,-8.5 0.45,-10.45 3.8,-17.55 2.83073,-4.35074 6.48302,-8.54998 11.45,-10.85 1.4,-0.55 1.9,-1.15 2.4,-2.9 1.4,-4.6 4.65,-8.05 9.8,-10.4 2.15,-1 10.45,-0.9 12.8,0.1 3.25,1.45 6.9,4.75 8.05,7.25 0.55,1.3 1.25,2.75 1.45,3.2 1.60453,4.39944 6.59187,5.68558 10.25,10 6.51872,9.1616 7.16492,20.27794 5.3,31.15 -0.9,4.6 -1.95,7.85 -2.9,8.75 -0.85,0.85 -1.05,0.85 -2.05,0.15 z m -14.65,-49.5 c -1.07876,-2.95357 -3.7437,-5.45166 -6.05,-6.65 -3.05,-1.6 -8.85,-1.6 -11.9,-0.05 -2.79732,1.81532 -5.22336,3.69345 -6,6.8 l 11.95,0.05 c 6.6,0.05 12,-0.05 12,-0.15 z"
       id="path136"
       transform="translate(3.2001054,12.966714)"
       sodipodi:nodetypes="cscccccccccscccccccccccccccccccc" />
  </g>
</svg>
