<?xml version="1.0" encoding="UTF-8" standalone="no"?>
<svg
   version="1.0"
   width="112.39022"
   height="128.42601"
   viewBox="0 0 112.39022 128.42601"
   preserveAspectRatio="xMidYMid"
   id="svg204"
   sodipodi:docname="FreeSample-Vectorizer-io-family.svg"
   inkscape:version="1.2.2 (732a01da63, 2022-12-09)"
   inkscape:export-filename="..\Desktop\dad.svg"
   inkscape:export-xdpi="96"
   inkscape:export-ydpi="96"
   xmlns:inkscape="http://www.inkscape.org/namespaces/inkscape"
   xmlns:sodipodi="http://sodipodi.sourceforge.net/DTD/sodipodi-0.dtd"
   xmlns="http://www.w3.org/2000/svg"
   xmlns:svg="http://www.w3.org/2000/svg">
  <defs
     id="defs208" />
  <sodipodi:namedview
     id="namedview206"
     pagecolor="#505050"
     bordercolor="#eeeeee"
     borderopacity="1"
     inkscape:showpageshadow="0"
     inkscape:pageopacity="0"
     inkscape:pagecheckerboard="0"
     inkscape:deskcolor="#505050"
     showgrid="false"
     inkscape:zoom="2.6103896"
     inkscape:cx="78.340796"
     inkscape:cy="88.68408"
     inkscape:window-width="1920"
     inkscape:window-height="991"
     inkscape:window-x="-9"
     inkscape:window-y="-9"
     inkscape:window-maximized="1"
     inkscape:current-layer="layer2" />
  <g
     inkscape:groupmode="layer"
     id="layer5"
     inkscape:label="grandpa"
     transform="translate(-12.740297,-252.4792)">
    <path
       d="m 9.8,367.2 c -0.15,-0.4 -0.3,-4.1 -0.25,-8.1 -0.025667,-7.82095 0.52623,-16.00432 2.95,-22.95 1.168778,-2.63416 2.924872,-5.15463 4.4,-6.9 3.6,-4.15 9.85,-7.75 18.6,-10.75 2.95,-1 6.2,-2.7 7.05,-3.6 1.1,-1.2 1.75,-1.15 3.15,0.25 1.3,1.3 1.05,2 -1.3,3.55 -1.9,1.25 -1.75,3.3 0.45,5.65 0.919321,1.1077 5.312424,5.24502 3.882309,4.64205 0.656412,-0.58448 -1.521601,2.09365 -2.232309,2.50795 -0.9,0.5 -1.25,0.35 -2.5,-1 -0.85,-0.9 -1.5,-1.8 -1.5,-2 -0.727187,-1.55828 -1.996073,-2.89625 -2.5,-4.55 0,-0.3 -0.35,-0.9 -0.8,-1.3 -4.675276,-0.68122 -7.476562,1.67726 -11.8,3.8 -12.878157,6.3119 -14.056929,19.82556 -13.8,32.55 l 0.15,4.75 9.85,0.15 9.85,0.1 0.15,-4.1 c 0.15,-3.95 0.2,-4.1 1.5,-4.45 2.05,-0.55 2.55,0.5 2.45,4.8 L 37.45,364 H 65.7 94 v -4.25 -4.25 h 2 2 v 4.25 4.25 h 10.05 10 l -0.2,-8.85 c -0.35,-14.25 -1.65,-18.5 -7.15,-23.9 -4.88803,-3.63644 -16.131322,-12.89796 -19.45,-6.25 -1.835633,3.19274 -3.503077,5.71119 -5.75,8.6 -1.7,2.2 -8.8,9.25 -11.8,11.7 -1.35,1.05 -2.9,2.35 -3.45,2.85 -2.6,2.4 -4.85,2.65 -6.8,0.75 -0.4,-0.4 -1.5,-1.25 -2.45,-1.9 -2.779448,-2.02698 -5.627289,-4.27942 -7.7,-6.25 l -4,-3.75 1.05,-1.4 c 0.55,-0.75 1.25,-1.35 1.55,-1.35 0.3,0 2.35,1.75 4.6,3.9 2.775172,2.47635 5.477113,4.78929 8.4,6.75 1.45,1.05 1.65,1.1 2.4,0.4 0.45,-0.45 1.6,-1.4 2.6,-2.15 6.623726,-5.93838 13.515137,-12.21482 17.55,-19.6 l 1.7,-3.2 -2.1,-1.8 c -2.2,-1.95 -2.35,-2.8 -0.5,-3.95 0.9,-0.6 1.3,-0.5 2.85,0.55 5.053202,2.60763 10.067118,4.94798 15.4,6.85 0.7,0 8,5.25 9.4,6.7 4.49606,4.79804 6.18225,11.07273 7.3,16.3 0.35,1.7 0.5,6.6 0.4,12.75 l -0.15,10 -55.8,0.15 C 15.35,368 10.1,367.95 9.8,367.2 Z"
       id="path128"
       transform="translate(3.2001054,12.966714)"
       sodipodi:nodetypes="ccccccsccccccccccccccccccccccccccccccccccccccscccccccccccccccc" />
    <path
       d="m 64.7,340.8 c -0.8,-0.55 -1.95,-1.5 -2.5,-2.05 -0.6,-0.55 -2.05,-1.8 -3.2,-2.75 -3.962388,-4.01454 -10.058705,-8.9539 -11.1,-14.7 -0.1,-0.7 0.25,-1.05 1.25,-1.35 1.7,-0.45 2.85,-0.1 2.85,0.85 2.204304,5.64522 7.452037,10.63356 12.35,14.6 l 2.15,1.7 4.6,-4.7 c 5.1,-5.15 6.15,-6.45 8.15,-10.35 1.15,-2.2 1.6,-2.6 2.45,-2.35 0.6,0.15 1.35,0.3 1.7,0.3 1.05,0 0.7,1.8 -1,4.85 -0.848281,2.05702 -2.52192,3.85746 -3.65,5.4 -2,2.7 -9,9.5 -11,10.7 -1.55,0.9 -1.6,0.9 -3.05,-0.15 z"
       id="path130"
       transform="translate(3.2001054,12.966714)"
       sodipodi:nodetypes="cccccccccccscccc" />
    <path
       d="m 53.55,317.9 c -4.008469,-2.5697 -7.531124,-6.39132 -9.7,-10.55 -2.240623,-4.20266 -2.869436,-8.98977 -3.4,-13.2 -0.55,-4.9 -0.6,-5.1 -2,-5.65 -3.125431,-2.18309 -4.545899,-6.51972 -2.85,-10.15 0.75,-1.45 1.4,-2.05 3.15,-2.9 1.3,-0.65 1.45,-0.95 1.55,-3.45 0.22156,-6.3029 1.052017,-12.31109 6.55,-15.2 10.426321,-2.82047 12.914522,8.83722 23.75,4 1,-0.5 2.25,-1.3 2.8,-1.8 3.4,-3.2 9.15,-4.05 12.25,-1.9 0.9,0.6 1.75,1.35 1.95,1.65 0.2,0.25 0.75,1.05 1.25,1.65 1.55,2.1 2.15,4.75 2.15,9.75 V 275 c 3.539103,-0.24549 6.890586,2.86819 7,6.35 0,0.9 -0.3,2.25 -0.6,3 -0.9,2 -3.5,4.55 -4.95,4.75 -1.15,0.15 -1.2,0.35 -1.5,4.65 -0.224752,4.82917 -1.375335,9.36299 -3.15,13.35 -2.7,5.9 -8.55,11.15 -14.85,13.3 -6.636889,0.90478 -13.957253,1.47527 -19.4,-2.5 z M 72,316.35 c 3.75,-1.4 6.9,-3.6 9.2,-6.6 2.15,-2.7 4.8,-7.95 4.8,-9.45 0,-0.4 -1.45,-0.45 -4.85,-0.15 -2.291544,-0.25952 -23.46782,1.28839 -24.95,0.4 -0.25,-0.25 -2.75,-0.55 -5.55,-0.65 l -5.1,-0.15 0.3,1.5 c 1.05,5.85 7.1,12.6 13.4,15.05 2.1,0.8 10.6,0.85 12.75,0.05 z M 64,296.5 c 0,-0.25 0.9,-0.5 1.95,-0.5 1.1,0 2.15,0.25 2.3,0.5 0.35,0.6 4.75,0.7 4.75,0.1 0,-1 -2.85,-1.6 -7.15,-1.6 -3.8,0 -4.8,0.2 -5.85,1 l -1.25,1 h 2.65 c 1.4,0 2.6,-0.2 2.6,-0.5 z m -8.6,-1.85 c 3.9,-3.5 6.15,-4.4 9.5,-3.8 1.4,0.25 1.6,0.15 1.65,-0.9 C 66.9,281.45 66.7,280 65,280 c -0.7,0 -1,0.35 -1,1.2 0,0.65 -0.75,2 -1.65,3 -1.715512,2.57144 -4.048882,1.8 -6.9,1.8 -5.6,-0.05 -6.5,-0.35 -7.75,-2.8 -2.465238,-7.47342 2.746565,-9.17317 8.05,-9.2 4.01161,-0.90744 6.925209,1.9547 10.35,2 1.75,0 2.75,-0.3 3.5,-1 0.95,-0.85 1.8,-1 6.45,-1 4.85,0 5.5,0.1 6.7,1.15 1.2,1 1.3,1.45 1.3,4.75 0,5.3 -1.1,6.1 -8.4,6.1 h -4.9 v 2.4 c 0.30858,3.10909 3.393066,3.51422 5.5,5.6 1.8,1.8 2.25,1.95 4.7,2 1.5,0 3.5,-0.25 4.4,-0.6 L 87,294.8 v -14.35 c 0,-11.85 -0.15,-14.65 -0.8,-16.2 -1.85,-4.45 -5.85,-5.65 -9.2,-2.75 -3.276396,2.32538 -7.090736,4.4001 -11.2,4.5 -3.6,0 -8.1,-1.75 -12.25,-4.75 -3.303458,-2.08038 -6.912453,-0.25464 -8,2.75 -1.15,3.45 -1.45,11.45 -1.1,28.75 0.05,1.85 0.2,2.1 1.7,2.6 0.85,0.25 2.95,0.55 4.65,0.6 2.65,0.05 3.2,-0.1 4.6,-1.3 z M 92.7,284.2 c 1.3,-1.25 1.55,-3.1 0.55,-4.2 -1.65,-1.8 -2.25,-1.25 -2.25,2 0,3.1 0.35,3.55 1.7,2.2 z m -52.6,-2.45 c 0.1,-1.35 -0.05,-2.2 -0.35,-2.1 -0.65,0.25 -0.95,4.35 -0.35,4.35 0.3,0 0.6,-1 0.7,-2.25 z m 19.3,-0.35 c 0.35,-0.35 0.6,-1.25 0.6,-2 V 278 h -4.2 c -3.35,0 -4.25,0.15 -4.5,0.8 -0.5,1.3 -0.35,2.6 0.35,2.85 1.25,0.55 7.15,0.35 7.75,-0.25 z M 80,280 v -2 h -4 -4 v 2 2 h 4 4 z"
       id="path132"
       transform="translate(3.2001054,12.966714)"
       sodipodi:nodetypes="cccccccccccccsccccccccccscccccccsscssccsscccssccccccscssccccccscccccccccccscccscsscsscsccccccccc" />
    <path
       d="m 33.65,272.15 c -0.4,-1.7 0.25,-10.95 0.9,-13.15 1.9,-5.95 6.5,-11.7 11.2,-13.95 8.523303,-3.74902 18.915875,-7.27528 28.35,-4.6 0.65,0.25 2.15,0.75 3.4,1.1 4.905909,1.60105 9.427187,4.75947 12.5,7.6 5.502898,5.58476 8.100053,12.07365 7.9,18.85 l -0.15,5.2 -1.85,0.1 -1.9,0.15 v -4.35 c -0.05,-6.85 -1.45,-10.6 -5.9,-15.95 -2.9,-3.4 -7.75,-6.45 -12.85,-8.05 -2.8,-0.85 -4.75,-1.1 -9.25,-1.1 -14.009082,0.36428 -27.362556,8.16516 -28.25,22.75 -0.2,3.3 -0.5,6.1 -0.6,6.25 -0.1,0.15 -0.9,0.25 -1.7,0.3 -1.15,0.05 -1.5,-0.15 -1.8,-1.15 z"
       id="path138"
       transform="translate(3.2001054,12.966714)"
       sodipodi:nodetypes="cccccccccccccccscc" />
  </g>
</svg>
