<?xml version="1.0" encoding="UTF-8" standalone="no"?>
<!-- Created with Inkscape (http://www.inkscape.org/) -->

<svg
   version="1.1"
   id="svg2"
   width="480.5499"
   height="552.74664"
   viewBox="0 0 480.5499 552.74665"
   xml:space="preserve"
   xmlns:xlink="http://www.w3.org/1999/xlink"
   xmlns="http://www.w3.org/2000/svg"
   xmlns:svg="http://www.w3.org/2000/svg"><defs
     id="defs6"><linearGradient
       id="linearGradient5090"><stop
         style="stop-color:#35b189;stop-opacity:1;"
         offset="0"
         id="stop5086" /><stop
         style="stop-color:#1c6b9c;stop-opacity:1"
         offset="1"
         id="stop5088" /></linearGradient><clipPath
       clipPathUnits="userSpaceOnUse"
       id="clipPath18"><path
         d="M 0,283.465 H 283.465 V 0 H 0 Z"
         id="path16" /></clipPath><linearGradient
       xlink:href="#linearGradient5090"
       id="linearGradient5092"
       x1="206.82874"
       y1="58.689861"
       x2="206.12163"
       y2="130.10765"
       gradientUnits="userSpaceOnUse" /><clipPath
       clipPathUnits="userSpaceOnUse"
       id="clipPath1032"><g
         id="g1054"
         style="display:inline"><text
           xml:space="preserve"
           style="font-style:normal;font-variant:normal;font-weight:normal;font-stretch:normal;font-size:34.5296px;font-family:marcous;-inkscape-font-specification:marcous;display:none;fill:#000000;fill-opacity:1;stroke:none;stroke-width:1.22349;stroke-linecap:round;stroke-linejoin:round"
           x="138.19897"
           y="109.07207"
           id="text1036"><tspan
             id="tspan1034"
             x="138.19897"
             y="109.07207"
             style="font-style:normal;font-variant:normal;font-weight:normal;font-stretch:normal;font-size:34.5296px;font-family:renogare;-inkscape-font-specification:'renogare, Normal';font-variant-ligatures:normal;font-variant-caps:normal;font-variant-numeric:normal;font-variant-east-asian:normal;fill:#000000;fill-opacity:1;stroke-width:1.22349">harmonize</tspan></text><g
           id="g1052"
           style="display:inline;fill:#000000"
           transform="matrix(1.3333333,0,0,-1.3333333,0,377.95333)"><g
             id="g1050"
             clip-path="url(#clipPath18)"
             style="fill:#000000"><g
               id="g1040"
               transform="translate(77.8687,222.8078)"
               style="fill:#000000"><path
                 d="m 0,0 c 3.265,0 5.913,2.647 5.913,5.912 0,3.266 -2.648,5.913 -5.913,5.913 -3.265,0 -5.913,-2.647 -5.913,-5.913 C -5.913,2.647 -3.265,0 0,0"
                 style="fill:#000000;fill-opacity:1;fill-rule:nonzero;stroke:none"
                 id="path1038" /></g><g
               id="g1044"
               transform="translate(91.894,221.0666)"
               style="fill:#000000"><path
                 d="m 0,0 c 3.139,0 5.683,2.544 5.683,5.683 0,3.138 -2.544,5.682 -5.683,5.682 -3.138,0 -5.682,-2.544 -5.682,-5.682 C -5.682,2.544 -3.138,0 0,0"
                 style="fill:#000000;fill-opacity:1;fill-rule:nonzero;stroke:none"
                 id="path1042" /></g><g
               id="g1048"
               transform="translate(84.0654,206.9319)"
               style="display:inline;fill:#000000"><path
                 d="m 0,0 c -2.443,0 -4.423,1.98 -4.423,4.423 0,2.443 1.98,4.424 4.423,4.424 2.443,0 4.424,-1.981 4.424,-4.424 C 4.424,1.98 2.443,0 0,0 m 17.617,2.951 c 0,5.614 -4.552,10.166 -10.166,10.166 -2.716,0 -5.177,-1.072 -7,-2.806 -1.773,2.614 -4.769,4.333 -8.167,4.333 -5.447,0 -9.862,-4.415 -9.862,-9.862 0,-1.229 0.235,-2.401 0.645,-3.486 -0.001,0 -0.011,0.003 -0.011,0.003 l 0.042,-0.086 c 0.193,-0.495 0.424,-0.97 0.691,-1.423 l 0.448,-0.923 c 1.117,-2.301 2.533,-4.444 4.213,-6.372 1.069,-1.226 2.151,-2.453 2.529,-2.831 0.832,-0.832 2.493,-2.159 3.196,-2.321 2.9894738,-0.71016 4.5642149,1.758975 3.329,3.7 -0.467,0.682 -2.932,3.088 -3.416,3.526 -0.051,0.047 -0.12,0.13 -0.195,0.227 l -0.438,0.419 c -0.191,0.182 -0.221,0.463 -0.062,0.671 0.683,0.893 2.759,3.122 6.583,3.303 3.876,0.184 6.138,-2.242 6.862,-3.176 0.157,-0.203 0.133,-0.482 -0.05,-0.665 -1.4075163,-1.4130216 -2.8662713,-2.7922696 -4.159,-4.305 -1.3858585,-1.916856 0.791947,-4.286433 3.328,-3.7 0.704,0.162 2.365,1.489 3.197,2.321 0.378,0.378 1.46,1.605 2.529,2.831 1.579,1.812 3.464,3.367 4.614,5.457 0.052,0.091 0.103,0.182 0.152,0.276 0.022,0.043 0.049,0.082 0.07,0.126 l 0.018,0.057 c 0.44,0.877 0.754,1.825 0.924,2.824 l 0.021,0.064 h -0.011 c 0.089,0.539 0.146,1.088 0.146,1.652"
                 style="fill:#000000;fill-opacity:1;fill-rule:nonzero;stroke:none"
                 id="path1046" /></g></g></g></g></clipPath></defs><g
     id="layer4"
     transform="translate(1026.1666,174.7933)"
     style="display:inline"><rect
       style="display:inline;fill:url(#linearGradient5092);fill-opacity:1;fill-rule:nonzero;stroke-width:0.377953;stroke-linecap:round;stroke-linejoin:round"
       id="rect5084"
       width="293.25128"
       height="87.681244"
       x="71.064232"
       y="50.91169"
       clip-path="url(#clipPath1032)"
       transform="matrix(10.240444,0,0,10.240444,-1933.9806,-841.54456)" /></g></svg>
