<?xml version="1.0" encoding="UTF-8" standalone="no"?>
<svg
   version="1.0"
   width="103.02087"
   height="128.80177"
   viewBox="0 0 103.02087 128.80177"
   preserveAspectRatio="xMidYMid"
   id="svg204"
   sodipodi:docname="FreeSample-Vectorizer-io-family.svg"
   inkscape:version="1.2.2 (732a01da63, 2022-12-09)"
   inkscape:export-filename="..\Desktop\dad.svg"
   inkscape:export-xdpi="96"
   inkscape:export-ydpi="96"
   xmlns:inkscape="http://www.inkscape.org/namespaces/inkscape"
   xmlns:sodipodi="http://sodipodi.sourceforge.net/DTD/sodipodi-0.dtd"
   xmlns="http://www.w3.org/2000/svg"
   xmlns:svg="http://www.w3.org/2000/svg">
  <defs
     id="defs208" />
  <sodipodi:namedview
     id="namedview206"
     pagecolor="#505050"
     bordercolor="#eeeeee"
     borderopacity="1"
     inkscape:showpageshadow="0"
     inkscape:pageopacity="0"
     inkscape:pagecheckerboard="0"
     inkscape:deskcolor="#505050"
     showgrid="false"
     inkscape:zoom="2.6103896"
     inkscape:cx="78.340796"
     inkscape:cy="88.68408"
     inkscape:window-width="1920"
     inkscape:window-height="991"
     inkscape:window-x="-9"
     inkscape:window-y="-9"
     inkscape:window-maximized="1"
     inkscape:current-layer="layer2" />
  <g
     inkscape:groupmode="layer"
     id="layer2"
     inkscape:label="mom"
     style="display:inline"
     transform="translate(-236.13678,-24.164934)">
    <path
       d="m 237.00012,151.86671 c -1.45,-2.1 -1,-15.8 0.8,-22.65 5.1776,-21.20054 23.93868,-20.15437 35.05,-28.4 1.9,-1.949999 2.35,-3.249999 2.35,-6.349999 0,-3 -0.05,-3.05 -2.7,-5.75 -3.70517,-3.702831 -6.25927,-8.914395 -7.75,-13.399997 -0.6,-1.8 -0.85,-14.95 -0.3,-15.8 0.15,-0.25 1.65,-1.15 3.35,-2.05 6,-3.1 11.65,-7.2 15.7,-11.35 2.3,-2.3 4.55,-4.15 5.1,-4.15 0.5,0 1.95,1.05 3.25,2.4 4.97324,4.749207 9.27925,8.560606 14.85,11.55 1.5101,0.716313 2.94912,1.912318 4.25,2.65 l 1.5,0.85 -0.15,7.4 c -0.1,5.95 -0.35,7.95 -1.15,10.3 -2.05,5.849997 -4.15,8.999997 -8.8,13.649997 -1.95,1.85 -2.15,2.3 -2.15,4.4 0,3.95 1.4,5.699999 6.75,8.299999 1.95,0.9 4.05,1.9 4.75,2.15 6.3146,3.09948 13.79014,5.80065 18.2,10.25 0.6,0.65 1.8,1.95 2.7,2.95 1.75361,2.27642 3.2206,5.25741 4.1,7.4 1.65,4.15 2.55,11 2.45,18.5 -0.05,5 -0.25,6.7 -0.85,7.4 -0.7,0.8 -3.75,0.85 -50.65,0.85 h -49.9 z m 22.2,-7.45 v -4.45 h 2 2 v 3.9 c 0,2.1 0.19999,4.15 0.39999,4.45 0.3,0.5 5.9,0.6 24.35001,0.5 l 24,-0.1 0.14999,-4.35 c 0.15,-4.65 0.5,-5.2 2.9,-4.6 1.15,0.3 1.2,0.45 1.2,4.75 v 4.45 h 9.2 c 8.2,0 9.25,-0.1 9.4,-0.85 0.1,-0.45 0,-4.4 -0.2,-8.75 -0.4,-8.75 -1,-11.3 -4,-16.25 -1.85,-3.1 -5.55,-6.65 -8.85,-8.55 -11.70731,-5.59438 -7.25706,-4.38436 -11.65,1.2 -2.05,2.35 -5.7,5.95 -6.95,6.85 -6.64576,4.46942 -15.84587,6.01226 -23.7,3.65 -5.58127,-2.03099 -11.65411,-5.45159 -14.7,-10.9 -1.29307,-1.51854 -1.88458,-3.6873 -3.6,-4.4 -1.05,0 -7.69999,3.55 -9.9,5.25 -4.85,3.8 -8.05,8.3 -9.5,13.5 -0.75,2.75 -1.35,10.15 -1.15,15.15 l 0.15,4.1 h 9.2 l 9.25,-0.05 z m 38.69999,-23.65 c 4.00521,-1.94861 6.93408,-5.00506 9.2,-8.1 1,-1.2 2.25,-3.25 2,-3.4 -0.1,-0.1 -2.05,-1.1 -4.35,-2.25 -2.35,-1.15 -4.75,-2.7 -5.4,-3.45 -1.8,-2 -3.14999,-4.849999 -3.14999,-6.599999 0,-1.4 -0.10001,-1.5 -1.35001,-1.2 -4.92365,2.351587 -10.25767,0.05668 -14.75,-0.8 -0.7,0 -0.9,0.4 -0.9,1.75 -0.54949,8.794359 -9.34576,9.035779 -13,13.399999 5.71729,7.96325 9.13728,11.80742 18.75,12.8 5.75,0.5 8.75,0 12.95,-2.15 z m -5.85,-28.349999 c 2.35,-0.95 3.9,-1.7 4.15,-1.95 0.15,-0.15 1.05,-0.85 2,-1.5 0.95,-0.65 2,-1.45 2.3,-1.75 2.73588,-3.427042 5.31354,-7.071364 6.55,-10.749997 0.85,-2.45 1.15,-4.65 1.25,-9 0.15,-5.55 0.1,-5.75 -1,-6.25 -5.20391,-3.737473 -11.05517,-6.863829 -15.7,-11.35 l -2.89999,-2.9 -3.55001,3.5 c -5.05208,4.995689 -12.08107,8.8323 -17.44999,11.25 l 0.3,6 c -0.0208,6.014958 2.39719,11.662867 5.45,15.999997 2.1,2.95 4.55,5.25 7.19999,6.75 0.7,0.4 1.4,0.85 1.55001,1 1.3,1.35 7.44999,1.9 9.84999,0.95 z"
       id="path152-8"
       sodipodi:nodetypes="cccscccccscccccccscccccccsccccccscccccscscccccccccccccccccccccscccccccssccccccccccccc"
       inkscape:export-filename="..\Desktop\path152-8.svg"
       inkscape:export-xdpi="96"
       inkscape:export-ydpi="96" />
    <path
       d="m 280.85011,114.21671 c -1.5,-1.65 -0.25,-4.25 1.95001,-4.25 2.2,0 2.9,1.15 2.25,3.65 -0.3,1.1 -0.65,1.35 -2,1.35 -0.85,-0.05 -1.9,-0.35 -2.20001,-0.75 z"
       id="path154-6" />
    <path
       d="m 289.00012,113.61671 c -1,-1.95 0.14999,-3.65 2.45,-3.65 1.3,0 1.75,0.25 2.25,1.45 0.8,2.05 -0.15,3.55 -2.35001,3.55 -1.25,0 -1.8,-0.3 -2.34999,-1.35 z"
       id="path156-9" />
    <path
       d="m 274.25012,111.16671 c -1.55,-1.1 -1.45,-3.8 0.2,-4.7 1.89999,-1 3.75,0.1 3.75,2.3 0,1.35 -0.30001,1.85 -1.45,2.4 -1.25,0.65 -1.55,0.65 -2.5,0 z"
       id="path158-9" />
    <path
       d="m 297.65011,111.36671 c -1.8,-0.6 -2.25,-3.1 -0.8,-4.45 1.3,-1.2 2.45,-1.2 3.55,0 1.95,2.15 -0.1,5.4 -2.75,4.45 z"
       id="path160-3" />
    <path
       d="m 285.55012,88.266711 c -2.6,-0.7 -4.35,-2 -4.35,-3.3 0,-1.05 2.39999,-2.45 2.89999,-1.65 0.65,1.05 4.4,1.3 6.10001,0.4 1.5,-0.75 1.64999,-0.75 2.55,0.05 0.5,0.45 0.95,1.1 0.95,1.45 0,1 -1.65,2.6 -3,2.85 -1.76969,0.654542 -3.57831,0.598274 -5.15,0.2 z"
       id="path162-6"
       sodipodi:nodetypes="cscccscc" />
    <path
       d="m 285.80012,80.166714 c -1.05,-1.15 -0.55,-2.9 0.9,-3.1 2.25,-0.35 2.5,-0.9 2.5,-6.15 0,-4.05 0.19999,-5.2 1.05,-6.65 1.64999,-2.8 2.8,-3.3 8.1,-3.3 5.45,0 6.5,0.55 5.35,2.75 -0.6,1.15 -0.95,1.25 -4.45,1.25 -5.75,0 -6.05,0.35 -6,6.5 0.05,5.8 -0.55,7.4 -3.4,8.9 -1.45,0.799997 -3.25,0.699997 -4.05,-0.2 z"
       id="path164-9" />
    <path
       d="m 276.70012,72.066714 c -0.9,-0.25 -2,-1.55 -2,-2.35 0,-0.35 0.44999,-1.1 1,-1.75 1.89999,-2.2 5.35,0.2 4,2.75 -0.65,1.25 -1.75,1.75 -3,1.35 z"
       id="path166-1" />
    <path
       d="m 296.30012,71.316714 c -1.15001,-1.35 0.45,-4.35 2.34999,-4.35 1.05001,0 2.55001,1.7 2.55001,2.9 0,1.8 -3.7,2.9 -4.9,1.45 z"
       id="path168-9" />
    <path
       d="m 274.25012,64.066714 c -0.3,-0.5 -0.35001,-1.45 -0.2,-2.05 0.25,-1 0.5,-1.1 4.1,-0.95 3.55,0.15 3.8,0.25 3.95,1.3 0.3,1.95 -0.7,2.6 -4.2,2.6 -2.55,0 -3.25,-0.2 -3.65,-0.9 z"
       id="path170-7" />
    <path
       d="m 246.55011,107.61671 c -0.5,-0.45 -0.45,-7.5 0.05,-8.549999 0.25,-0.45 0.95,-1.95 1.60001,-3.25 0.64999,-1.35 2.19999,-3.35 3.5,-4.5 l 2.34999,-2.1 -1.05,-1.75 c -0.75,-1.35 -1,-2.7 -1,-6.05 -0.05,-2.349997 0.2,-4.849997 0.5,-5.499997 2.95,-6.4 3.1,-7.5 1.7,-17.2 -0.6,-4.15 -0.35,-9.7 0.6,-12.75 2.2,-7.15 4.05,-10.35 8.4,-14.55 5.37707,-4.590975 12.2213,-7.695059 18.95,-7.2 2.35,0.2 5.45,0.3 6.8,0.25 6.8,-0.3 11.6,0 14,0.95 3.25,1.3 5.95,2.7 7.05,3.7 3.11395,2.671123 5.64805,5.573453 7.55,8.85 3.4,6.3 4.7,13.8 3.65,21.25 -1.2,8.45 -1.2,8.95 0.25,12.85 2.0776,4.58693 2.39269,8.570356 1.75,12.999997 0,0.55 -0.45,1.8 -1,2.7 l -1.05,1.65 1.4,0.9 c 1.95,1.25 3.45,3.05 4.7,5.65 0.6,1.25 1.3,2.65 1.55,3.1 0.7,1.499999 0.5,7.699999 -0.3,8.349999 -0.5,0.4 -0.8,0.45 -1.05,0.05 -0.14999,-0.25 -0.74999,-0.5 -1.3,-0.5 -0.84999,0 -0.94999,-0.35 -0.94999,-3.2 0,-4.949999 -2.85001,-9.449999 -7.30001,-11.549999 -2,-0.95 -2.14999,-2.1 -0.55,-4.4 0.60001,-0.9 1.25,-1.7 1.4,-1.85 0.65,-0.5 1,-5.3 0.55,-7.249997 -0.5,-2.1 -1.9,-6.3 -2.75,-8.1 -0.5,-1.15 -0.2,-7.55 0.65,-12.4 0.55,-3.2 0.25,-8.85 -0.6,-11.75 -1,-3.3 -4.35,-9.75 -6,-11.5 -4.47734,-4.7466 -11.19249,-6.93635 -17.65,-6.45 -2.4,0.2 -6.95,0.15 -10.75,-0.1 -3.45,-0.2 -7.15,0.4 -9.7,1.6 -7.42679,3.947475 -8.44882,5.652413 -11.69999,11.3 -0.8,1.3 -1.7,3.2 -2.05,4.15 -0.5,1.45 -1.2,7.7 -1.2,10.5 0.05,1.3 0.7,6.2 0.95,7 0.88221,3.212086 0.46105,6.322559 -0.3,9.05 0,0.55 -0.45,1.9 -0.95,3 -1.3,2.65 -1.8,6.899997 -1.10001,9.099997 0.30001,0.9 1.15001,2.45 1.80001,3.35 1.75,2.35 1.65,3.75 -0.35,4.75 -2.6,1.25 -5.2,3.85 -6.4,6.4 -0.9,1.849999 -1.05001,2.999999 -0.9,5.299999 0.15,2.4 0.05,3.05 -0.7,3.5 -1,0.6 -2.55,0.75 -3.05001,0.2 z"
       id="path198-5"
       sodipodi:nodetypes="ccccccccccccccccccccccccccssccccccccccccccccccccccsc" />
  </g>
</svg>
