<?xml version="1.0" encoding="UTF-8" standalone="no"?>
<svg
   version="1.0"
   width="103.28009"
   height="128.93814"
   viewBox="0 0 103.28009 128.93814"
   preserveAspectRatio="xMidYMid"
   id="svg204"
   xmlns="http://www.w3.org/2000/svg"
   xmlns:svg="http://www.w3.org/2000/svg">
  <defs
     id="defs208" />
  <g
     id="layer4"
     transform="translate(-671.83624,-24.028578)">
    <path
       d="m 669.2,139.45 c -1,-1.65 -0.6,-13.25 0.65,-17.95 0.85,-3.2 3.9,-8.8 5.9,-10.8 5.74253,-5.25448 12.868,-8.97303 19.65,-11.5 4.85,-1.8 7.35,-3.45 8.55,-5.45 1.75,-2.95 1.4,-4.75 -1.3,-7.6 -2.55,-2.65 -3.15,-3.5 -5.05,-7.3 -1.15,-2.3 -1.85,-4.45 -2.45,-7.45 -0.15,-0.8 -0.6,-1.4 -0.95,-1.4 -1.85,0 -4.95,-2.85 -5.35,-4.9 -0.15,-0.7 -0.2,-2.35 -0.15,-3.75 0.05,-2.1 0.3,-2.65 1.7,-3.9 1,-0.9 2.15,-1.45 3.1,-1.45 1.5,0 1.5,0 1.5,-2.9 0,-3.2 0.05,-3.3 4.25,-4.55 1.1,-0.35 2.95,-1.05 4.1,-1.6 1.2,-0.5 2.3,-0.95 2.55,-0.95 0.4,0 4.1,-1.65 5.7,-2.5 5.44472,-1.702033 8.73467,-4.587822 13.25,-6.65 3.35,-1.5 3.9,-1.35 7.9,2.5 1.4,1.3 3.55,3.2 4.75,4.15 1.25,0.95 3.25,2.7 4.5,3.9 1.25,1.15 2.65,2.5 3.15,2.95 0.55,0.55 0.85,1.6 0.85,3.15 0,2.2 0.1,2.4 1.4,2.65 3.55,0.7 5.55,5.2 4.05,9.2 -0.6,1.65 -2.2,3.25 -4.35,4.35 -1.2,0.6 -1.65,1.25 -1.85,2.7 -0.65,3.9 -3.8,9.75 -7.1,13.1 -2.5,2.55 -2.65,2.9 -2.45,4.75 0.15,1.1 0.25,2.25 0.25,2.55 6.6266,7.57693 17.63569,8.71602 25.85,15.3 7.41042,6.11103 9.67593,14.21718 10.05,23.8 0.15,4.75 0.05,6.85 -0.35,7.35 -0.55,0.65 -7.6,0.75 -51.3,0.75 -37.25,0 -50.75,-0.15 -51,-0.55 z m 22.1,-5.7 c 0.1,-6.05 0,-5.85 2.1,-5.65 l 1.85,0.15 v 3.65 3.6 l 1.5,0.25 c 0.85,0.15 11.95,0.25 24.75,0.15 l 23.25,-0.15 0.25,-3.75 0.25,-3.75 1.9,-0.15 1.85,-0.15 v 3.75 c 0,3.5 0.1,3.8 1.15,4.05 0.6,0.15 4.8,0.2 9.35,0.1 l 8.25,-0.1 0.15,-3.5 c 0.2674,-9.67594 -3.28948,-16.46634 -10.05,-22.15 -5.53125,-4.20028 -12.46981,-5.70345 -18.35,-8.85 -1.5,-0.8 -2.1,-0.55 -3.15,1.5 -1.1,2.15 -4.5,5.1 -7.9,6.85 -2.7,1.35 -3.45,1.5 -7.65,1.45 -8.07348,0.571 -13.35164,-5.05318 -17.4,-10.55 -0.25,0 -1.7,0.55 -3.2,1.25 -1.5,0.7 -2.9,1.25 -3.15,1.25 -7.96189,2.82724 -15.47717,6.53808 -20.4,13.5 -2.45,3.6 -3.55,7.55 -3.75,13.65 -0.15,2.95 -0.1,5.45 0.05,5.6 0.1,0.15 4.3,0.2 9.25,0.15 l 9.05,-0.15 z m 35.25,-27.8 c 1.2,-0.6 2.75,-1.5 3.4,-2 1.6,-1.3 4,-4.55 4.05,-5.5 -1.096,-3.036741 -2.24933,-7.296972 -4.85,-6.2 -3.4,1.5 -3.85,1.65 -6.9,2.2 -3.35,0.55 -7.2,-0.05 -10.2,-1.6 C 711.1,92.4 710.1,92 709.8,92 c -0.8,0.05 -3.1,5.05 -2.9,6.35 0.2,1.5 4.8,6.15 7.35,7.5 2.9,1.55 9.2,1.55 12.3,0.1 z m 4.7,-19.6 C 731.6,86 732.4,85.4 733,85 c 5.17743,-3.943442 7.35686,-9.782241 8.45,-14.5 0.25,-0.95 0.4,-5.4 0.35,-9.85 l -0.05,-8.1 -2.25,-1.9 c -1.2,-1.05 -2.95,-2.55 -3.8,-3.4 -0.9,-0.8 -2.35,-2.05 -3.25,-2.75 -0.9,-0.7 -2.4,-2 -3.3,-2.85 -3.884,-3.428621 -14.69963,5.464143 -20.9,7.85 -2.53469,1.617663 -5.84416,1.873377 -8.35,3.2 -0.8,0.6 -0.9,1.65 -0.9,9.35 0,9.3 0.35,11.2 2.75,15.95 1.25,2.45 3.4,5.2 5.4,6.95 3.5,3 4,3.35 6.6,4.35 5.92636,2.056306 12.53575,1.249246 17.5,-2.95 z M 695,63 c 0,-2.35 -0.15,-3 -0.75,-3 -0.45,0 -1.05,0.55 -1.35,1.25 -0.45,1.05 -0.4,1.6 0.25,3 1.25,2.6 1.85,2.15 1.85,-1.25 z m 52.75,-0.05 c 0.2,-0.95 0.1,-1.7 -0.45,-2.2 -1.15,-1.15 -1.3,-0.95 -1.3,2.05 0,2.4 0.1,2.75 0.7,2.25 0.4,-0.35 0.9,-1.3 1.05,-2.1 z"
       id="path174"
       transform="translate(3.2001054,12.966714)" />
    <path
       d="m 718.25,84.1 c -3.6,-0.35 -5.2,-1.85 -4.5,-4.1 0.35,-1.1 3,-1.45 3.35,-0.45 0.25,0.75 5.6,0.65 6.85,-0.15 1.35,-0.85 2.75,-0.05 2.95,1.75 0.15,1.05 -0.15,1.4 -1.5,2.05 -1.75,0.75 -4.65,1.15 -7.15,0.9 z"
       id="path176"
       transform="translate(3.2001054,12.966714)" />
    <path
       d="m 718.1,74.4 c -0.85,-0.4 -1.1,-0.95 -1,-1.85 0.1,-1 0.55,-1.35 2.05,-1.7 L 721,70.4 v -5.2 c 0,-5.65 0.4,-7.05 2.75,-9.6 1.45,-1.6 1.75,-1.65 6.1,-1.95 5.9,-0.4 7.15,-0.05 7.15,1.8 0,1.85 -0.8,2.15 -5.95,2.3 -5.7,0.15 -6,0.55 -6.05,7.9 0,6.15 -0.5,7.4 -3.4,8.6 -2,0.85 -2,0.85 -3.5,0.15 z"
       id="path178"
       transform="translate(3.2001054,12.966714)" />
    <path
       d="m 707.85,64.1 c -1.65,-1.8 -0.45,-4.1 2.1,-4.1 1.2,0 1.7,0.3 2.05,1.25 1.15,2.95 -2.1,5.15 -4.15,2.85 z"
       id="path180"
       transform="translate(3.2001054,12.966714)" />
    <path
       d="m 729.6,64.4 c -1.5,-1.5 -0.2,-4.4 1.9,-4.4 2.1,0 3.4,2.9 1.9,4.4 -0.75,0.75 -3.05,0.75 -3.8,0 z"
       id="path182"
       transform="translate(3.2001054,12.966714)" />
    <path
       d="m 706.45,57.6 c -0.75,-0.25 -1.95,-1.55 -1.95,-2.15 0,-0.2 0.35,-0.75 0.8,-1.15 1,-1 8.8,-1.15 9.6,-0.15 0.75,0.85 0.15,3.35 -0.85,3.45 -2,0.15 -6.95,0.2 -7.6,0 z"
       id="path184"
       transform="translate(3.2001054,12.966714)" />
    <path
       d="m 689,46.7 c -0.24441,-4.180946 0.38372,-8.14927 1.55,-12.05 0.6,-2.15 2.4,-6.3 2.9,-6.65 0.15,-0.15 1.1,-1.3 2.05,-2.55 2.63636,-3.471467 7.48619,-5.013861 7.5,-8.65 v -2.75 l 2,-0.55 c 1.9,-0.5 2.45,-0.45 10.15,0.75 1.15,0.2 1.35,0.05 1.35,-0.9 0,-3 3.05,-3.05 8.45,-0.15 2.1,1.15 2.45,1.4 6.3,4.95 1.7,1.55 3.45,2.85 3.85,2.85 1.55,0 5.95,2.65 8.35,5.05 5.55,5.45 8.6,14.2 7.75,22.35 -0.35,3.35 -1,4 -3.1,3 -1.25,-0.65 -1.25,-0.75 -1.15,-5.55 0.05,-2.7 -0.15,-5.7 -0.5,-6.75 -3.1773,-7.076917 -6.2936,-11.948608 -13.45,-14.65 -0.95,-0.3 -2.75,-1.65 -4,-2.9 -3.7,-3.8 -9.15,-6.95 -8.35,-4.85 0.5,1.3 -0.9,2.45 -2.85,2.4 -1,-0.05 -2.2,-0.25 -2.7,-0.5 -0.45,-0.25 -2.5,-0.65 -4.45,-0.8 L 707,17.45 c -1.56828,9.657084 -9.70789,10.652452 -12.45,18.45 -1.15,2.3 -1.55,4.95 -1.55,10.75 0,5.7 -0.1,6.35 -0.85,6.35 -0.5,0 -1.4,0.15 -2,0.3 L 689,53.6 Z"
       id="path200"
       transform="translate(3.2001054,12.966714)" />
  </g>
</svg>
